<svg id="Layer_1" viewBox="0 0 512 512" xmlns="http://www.w3.org/2000/svg" data-name="Layer 1"><g><g><g fill-rule="evenodd"><path d="m295.124 111.367-59.386 102.859c-2.527 4.377-3.142 9.046-1.834 13.927l67.073 250.321c2.616 9.764 12.714 15.595 22.479 12.978l163.74-43.874c9.765-2.616 15.594-12.714 12.978-22.479l-67.073-250.32c-1.308-4.883-4.174-8.617-8.551-11.145l-102.86-59.386c-9.276-5.355-21.209-2.158-26.565 7.118z" fill="#fdc72e"/><path d="m295.124 111.367-59.386 102.859c-2.527 4.377-3.142 9.046-1.834 13.927l67.073 250.321c2.616 9.764 12.715 15.595 22.479 12.978l150.385-40.295h.001c9.764-2.617 15.593-12.715 12.977-22.479l-67.073-250.321c-1.308-4.883-4.174-8.617-8.552-11.145l-102.86-59.386c-2.454-1.417-5.094-2.235-7.75-2.5-2.166 1.557-4.044 3.586-5.461 6.04z" fill="#ffeb87"/><path d="m293.16 107.765-83.985 83.984c-3.574 3.574-5.376 7.924-5.376 12.978v274.712c0 10.109 8.245 18.354 18.354 18.354h169.515c10.109 0 18.354-8.245 18.354-18.354v-274.711c0-5.055-1.802-9.404-5.376-12.978l-83.985-83.984c-7.574-7.574-19.929-7.574-27.502 0z" fill="#f23353"/><path d="m293.16 107.765-83.984 83.984c-3.574 3.574-5.376 7.924-5.376 12.978v274.712c0 10.109 8.245 18.354 18.354 18.354h155.814c10.109 0 18.354-8.245 18.354-18.354v-274.712c0-5.055-1.802-9.404-5.376-12.978l-83.985-83.984c-2.02-2.02-4.381-3.501-6.9-4.444-2.519.942-4.88 2.424-6.9 4.444z" fill="#ff5471"/></g><circle cx="306.911" cy="175.846" fill="#f23353" r="25.395" transform="matrix(.139 -.99 .99 .139 90.196 455.401)"/><path d="m310.564 150.714c12.294 1.771 21.742 12.347 21.742 25.132s-9.448 23.361-21.742 25.132c-12.294-1.771-21.743-12.347-21.743-25.132s9.449-23.361 21.743-25.132z" fill="#fff" fill-rule="evenodd"/></g><path d="m310.86 168.986c3.805.634 6.376 4.233 5.742 8.039-.634 3.805-4.234 6.376-8.039 5.742-20.226-3.404-38.019-13.95-50.689-28.951-12.492-14.791-20.023-33.892-20.023-54.733 0-23.437 9.501-44.656 24.86-60.016 15.36-15.36 36.579-24.86 60.016-24.86s44.656 9.5 60.016 24.86c15.36 15.359 24.86 36.579 24.86 60.016 0 3.866-3.134 7-7 7s-7-3.134-7-7c0-19.573-7.933-37.292-20.759-50.118s-30.545-20.759-50.118-20.759-37.292 7.933-50.118 20.759c-12.826 12.825-20.759 30.545-20.759 50.118 0 17.433 6.276 33.383 16.687 45.71 10.592 12.541 25.448 21.354 42.322 24.194z" fill="#453530" fill-rule="evenodd"/></g><circle cx="307.004" cy="399.911" fill="#fdc72e" r="67.17" transform="matrix(.957 -.29 .29 .957 -102.715 106.124)"/><g fill-rule="evenodd"><path d="m301.253 466.833c-34.404-2.918-61.419-31.763-61.419-66.922s27.015-64.004 61.419-66.922c34.404 2.918 61.419 31.763 61.419 66.922s-27.015 64.004-61.419 66.922z" fill="#ffeb87"/><path d="m333.004 375.482c1.827 3.398.554 7.634-2.844 9.461s-7.634.554-9.461-2.844c-.294-.545-.695-1.054-1.182-1.521-2.286-2.194-6.181-3.48-10.392-3.845-4.411-.382-8.875.287-12.069 2.007-1.779.958-3.48 2.519-3.742 4.63-.313 2.527 1.784 4.526 3.797 5.666 1.676.949 3.737 1.66 5.941 2.275 1.229.343 3.211.815 5.181 1.284 5.438 1.295 10.776 2.567 16.128 5.71 4.099 2.407 7.017 5.614 8.775 9.148 1.447 2.909 2.113 6.056 2.013 9.195-.1 3.133-.978 6.215-2.618 9.007-1.954 3.327-4.938 6.198-8.907 8.172-2.841 1.413-6.144 2.375-9.635 2.889v5.953c0 3.866-3.134 7-7 7s-7-3.134-7-7v-6.22c-.328-.06-.655-.124-.98-.193-8.184-1.718-15.635-5.926-19.308-12.635-1.842-3.383-.594-7.618 2.789-9.461 3.383-1.842 7.618-.593 9.461 2.789 1.522 2.78 5.399 4.69 9.902 5.635 5.482 1.151 11.466.744 15.537-1.282 2.032-1.011 3.739-2.712 3.815-5.093.081-2.536-1.83-4.661-3.896-5.875-3.42-2.008-7.819-3.056-12.3-4.123-1.636-.39-3.285-.783-5.673-1.448-3.182-.888-6.276-1.981-9.112-3.587-3.214-1.82-6.002-4.225-8.087-7.565-2.337-3.741-3.213-7.88-2.71-11.937.494-3.988 2.324-7.825 5.403-11.033 1.603-1.67 3.504-3.071 5.611-4.206 2.837-1.529 6.11-2.596 9.549-3.202v-6.081c0-3.866 3.134-7 7-7s7 3.134 7 7v6.126c5.817 1.068 11.293 3.476 15.21 7.236 1.52 1.459 2.809 3.114 3.807 4.966z" fill="#f19a00"/><path d="m261.704 264.606c-3.866 0-7-3.134-7-7s3.134-7 7-7h90.6c3.866 0 7 3.134 7 7s-3.134 7-7 7zm0 36.299c-3.866 0-7-3.134-7-7s3.134-7 7-7h90.6c3.866 0 7 3.134 7 7s-3.134 7-7 7z" fill="#ffeb87"/></g><g><g fill-rule="evenodd"><path d="m162.31 229.849h41.667v135.654l-18.901 1.769c-25.537 2.003-57.752 6.974-82.687 2.434-18.506-3.37-23.257-8.907-49.722-8.907-.767 0-5.939-.025-10.443-.031v-119.202c70.505-4.598 84.34-35.285 79.101-97.481-.328-3.898 2.511-7.357 6.398-7.794 47.302-5.317 37.508 70.872 34.587 93.559z" fill="#ffcec0"/><path d="m42.224 254.17v-12.604c70.505-4.598 84.34-35.285 79.101-97.481-.329-3.898 2.511-7.357 6.399-7.794 4.216-.474 7.97-.29 11.324.436-2.932 1.127-4.885 4.089-4.61 7.358 3.417 40.583 7.365 108.218-92.214 110.085z" fill="#fdb0a0"/><path d="m203.978 229.849c-.491 14.186-3.802 40.851-38.984 41.186-6.862 12.573-17.495 22.778-33.172 27.938-10.913 2.924-14.776-10.356-5.725-13.335 12.255-4.034 20.572-12.022 25.945-21.866 5.651-10.354 9.891-21.669 10.359-33.923z" fill="#fdb0a0"/><path d="m35.344 370.353h14.375c5.373 0 9.769-4.397 9.769-9.77v-118.833c0-5.373-4.396-9.77-9.769-9.77h-28.75c-5.373 0-9.769 4.396-9.769 9.77v118.833c0 5.373 4.395 9.77 9.769 9.77z" fill="#f23353"/></g><path d="m20.97 231.98h8.382c5.392 0 9.769 4.377 9.769 9.769v118.834c0 5.392-4.378 9.77-9.77 9.77h-8.381c-5.392 0-9.769-4.377-9.769-9.769v-118.834c0-5.392 4.377-9.769 9.769-9.769z" fill="#ff5471"/><g fill="#fdb0a0"><rect height="35.18" rx="17.59" width="70.07" x="165.341" y="229.849"/><path d="m176.105 265.029h46.506c9.708 0 17.589 7.882 17.589 17.589 0 9.708-7.882 17.59-17.589 17.59h-46.506c-9.708 0-17.589-7.882-17.589-17.589 0-9.708 7.882-17.59 17.59-17.59z"/><path d="m177.51 300.209h40.059c9.708 0 17.59 7.882 17.59 17.59 0 9.708-7.882 17.59-17.59 17.59h-40.059c-9.708 0-17.589-7.882-17.589-17.589 0-9.708 7.882-17.59 17.59-17.59z"/><path d="m185.077 335.389h24.773c8.768 0 15.942 7.174 15.942 15.941 0 8.768-7.174 15.942-15.942 15.942h-24.773c-8.768 0-15.942-7.174-15.942-15.942 0-8.768 7.174-15.941 15.942-15.941z" fill-rule="evenodd"/></g><path d="m182.931 229.849h34.891c9.674 0 17.59 7.915 17.59 17.59h-70.07c0-9.674 7.915-17.59 17.59-17.59z" fill="#ffcec0" fill-rule="evenodd"/><path d="m176.105 265.029h46.505c9.675 0 17.59 7.915 17.59 17.589h-81.685c0-9.674 7.915-17.589 17.59-17.589z" fill="#ffcec0" fill-rule="evenodd"/><path d="m177.509 300.209h40.059c9.674 0 17.59 7.915 17.59 17.59h-75.238c0-9.674 7.915-17.59 17.589-17.59z" fill="#ffcec0" fill-rule="evenodd"/><path d="m185.077 335.389h24.773c8.768 0 15.942 7.174 15.942 15.942h-56.656c0-8.768 7.173-15.942 15.942-15.942z" fill="#ffcec0" fill-rule="evenodd"/></g></svg>