<svg id="Layer_1" viewBox="0 0 512 512" xmlns="http://www.w3.org/2000/svg" data-name="Layer 1"><path d="m279.55 393.586c-.029-13.639-6.878-28.153-19.235-33.661l-86.415-38.615c-17.078-7.636-32.262-6.033-49.02-.613l-87.864 28.416 36.692 118.087 51.264-13.435 76.414 27.948c18.915 6.907 35.322 11.162 52.138 2.594l165.391-84.517c13.494-7.344 31.912-13.289 25.18-36.283-3.876-13.232-16.524-21.305-28.094-17.924z" fill="#faba7b" fill-rule="evenodd"/><path d="m176.119 406.963a7.17 7.17 0 0 1 5.012-13.435l58.169 21.828c7.024 2.623 14.018 2.915 19.7.729 5.042-1.953 9.181-5.975 11.541-12.182a27.506 27.506 0 0 0 1.341-4.955 28.889 28.889 0 0 0 .5-5.362 7.17 7.17 0 0 1 14.339 0 42.915 42.915 0 0 1 -.67 7.839 42.19 42.19 0 0 1 -2.069 7.549c-3.906 10.317-11.046 17.107-19.789 20.488-9 3.468-19.585 3.206-29.9-.67z" fill="#f5ad65"/><path d="m6.444 330.956 42.142-12.328a8.954 8.954 0 0 1 11.1 6.062l45.114 154.258a8.967 8.967 0 0 1 -6.062 11.1l-42.167 12.331a9 9 0 0 1 -11.1-6.091l-45.118-154.228a8.994 8.994 0 0 1 6.091-11.1z" fill="#69a7ff" fill-rule="evenodd"/><path d="m27.952 351.852a7.182 7.182 0 1 1 13.814-3.934l.029.087a7.182 7.182 0 1 1 -13.814 3.934z" fill="#d5e3f2"/><path d="m402.74 282.548a32.358 32.358 0 0 0 7.723-26.812l-3.934-26c-6.907-45.7-37.829-84.022-84.05-84.022h-46.4c-46.222 0-77.144 38.324-84.051 84.022l-3.934 26a32.358 32.358 0 0 0 7.723 26.812c24.743 28.765 183.722 26.987 206.92 0z" fill="#fb4455" fill-rule="evenodd"/><path d="m241.605 66.943a57.675 57.675 0 0 1 115.35 0c0 105.034-115.35 105.034-115.35 0z" fill="#faba7b" fill-rule="evenodd"/><path d="m489.151 26.492a7.2 7.2 0 1 1 14.4 0v117.915a7.2 7.2 0 1 1 -14.4 0zm-90.2 0a7.184 7.184 0 1 1 14.367 0v117.915a7.184 7.184 0 1 1 -14.367 0zm45.085 0a7.2 7.2 0 1 1 14.4 0v117.915a7.2 7.2 0 1 1 -14.4 0z" fill="#4d6c8f"/><g fill-rule="evenodd"><path d="m406.121 76.24a15.65 15.65 0 1 0 -15.65-15.65 15.7 15.7 0 0 0 15.65 15.65z" fill="#ffab02"/><path d="m451.235 126.921a15.665 15.665 0 1 0 -15.65-15.65 15.69 15.69 0 0 0 15.65 15.65z" fill="#69a7ff"/><path d="m496.35 84.662a15.65 15.65 0 1 0 -15.65-15.65 15.672 15.672 0 0 0 15.65 15.65z" fill="#fb4455"/><path d="m179.762 146.8a34.434 34.434 0 0 1 34.448-34.419 34.44 34.44 0 0 1 -34.448-34.451 34.434 34.434 0 0 1 -34.419 34.448 34.428 34.428 0 0 1 34.419 34.422z" fill="#69a7ff"/><path d="m124.156 213.245a27.811 27.811 0 0 1 27.832-27.833 27.829 27.829 0 0 1 -27.832-27.832 27.848 27.848 0 0 1 -27.833 27.832 27.831 27.831 0 0 1 27.833 27.833z" fill="#ffab02"/><path d="m54.181 478.86-43.6-149.128-4.138 1.224a8.994 8.994 0 0 0 -6.091 11.1l45.116 154.232a9 9 0 0 0 11.1 6.091l42.171-12.327a8.967 8.967 0 0 0 6.062-11.1l-1.486-5.13-38.03 11.129a9.006 9.006 0 0 1 -11.1-6.091z" fill="#4c8fed"/><path d="m201.386 467.349-76.414-27.949-29.465 7.723 3.905 13.348 25.56-6.7 76.414 27.948c18.915 6.907 35.322 11.162 52.138 2.594l165.391-84.517c13.2-7.2 31.155-13.027 25.559-34.885-3.614 10.667-15.854 15.214-25.559 20.518l-165.391 84.513c-16.816 8.569-33.223 4.314-52.138-2.593z" fill="#f5ad65"/><path d="m211.5 229.74c6.907-45.7 37.829-84.022 84.051-84.022h-19.469c-46.222 0-77.144 38.324-84.051 84.022l-3.934 26a32.358 32.358 0 0 0 7.723 26.812c13.056 15.184 63.475 21.858 111.591 20.809-41.559-.9-80.845-7.665-92.123-20.809a32.358 32.358 0 0 1 -7.723-26.812z" fill="#e82e41"/><path d="m256.963 66.943a57.925 57.925 0 0 1 50.011-57.18 61.392 61.392 0 0 0 -7.694-.495 57.843 57.843 0 0 0 -57.675 57.675c0 52.517 28.823 78.775 57.675 78.775a45.6 45.6 0 0 0 7.694-.641c-26.084-4.255-50.011-30.309-50.011-78.134z" fill="#f5ad65"/></g></svg>